<svg xmlns="http://www.w3.org/2000/svg" xmlns:xlink="http://www.w3.org/1999/xlink" width="1920" zoomAndPan="magnify" viewBox="0 0 1440 809.999993" height="1080" preserveAspectRatio="xMidYMid meet" version="1.0"><defs><g/></defs><rect x="-144" width="1728" fill="#ffffff" y="-80.999999" height="971.999992" fill-opacity="1"/><rect x="-144" width="1728" fill="#ffffff" y="-80.999999" height="971.999992" fill-opacity="1"/><rect x="-144" width="1728" fill="#ffffff" y="-80.999999" height="971.999992" fill-opacity="1"/><path stroke-linecap="butt" transform="matrix(0.75, 0, 0, 0.75, 0.0000126595, 0.00002)" fill="none" stroke-linejoin="miter" d="M -0.0000168794 -0.0000266667 L 1920.00008 -0.0000266667 L 1920.00008 1080.000028 L -0.0000168794 1080.000028 L -0.0000168794 -0.0000266667 " stroke="#ee6c4d" stroke-width="50" stroke-opacity="1" stroke-miterlimit="4"/><g fill="#ee6c4d" fill-opacity="1"><g transform="translate(317.751552, 562.124992)"><g><path d="M 209.109375 0 L 194.828125 -54.3125 L 100.6875 -54.3125 L 86.015625 0 L 0 0 L 94.546875 -290.96875 L 199 -290.96875 L 294.734375 0 Z M 178.578125 -118.53125 L 166.09375 -166.09375 C 163.1875 -176.664062 159.648438 -190.34375 155.484375 -207.125 C 151.328125 -223.90625 148.585938 -235.929688 147.265625 -243.203125 C 146.078125 -236.460938 143.734375 -225.359375 140.234375 -209.890625 C 136.734375 -194.429688 128.96875 -163.976562 116.9375 -118.53125 Z M 178.578125 -118.53125 "/></g></g><g transform="translate(612.475938, 562.124992)"><g><path d="M 157.578125 0 L 98.3125 -208.703125 L 96.53125 -208.703125 C 99.300781 -173.160156 100.6875 -145.546875 100.6875 -125.859375 L 100.6875 0 L 31.3125 0 L 31.3125 -289.78125 L 135.578125 -289.78125 L 196.03125 -84.03125 L 197.609375 -84.03125 L 256.875 -289.78125 L 361.328125 -289.78125 L 361.328125 0 L 289.375 0 L 289.375 -127.046875 C 289.375 -133.648438 289.472656 -140.984375 289.671875 -149.046875 C 289.867188 -157.109375 290.757812 -176.863281 292.34375 -208.3125 L 290.5625 -208.3125 L 232.09375 0 Z M 157.578125 0 "/></g></g><g transform="translate(1004.913252, 562.124992)"><g><path d="M 17.046875 -32.90625 C 17.046875 -45.0625 20.644531 -54.441406 27.84375 -61.046875 C 35.050781 -67.648438 45.523438 -70.953125 59.265625 -70.953125 C 72.347656 -70.953125 82.390625 -67.648438 89.390625 -61.046875 C 96.390625 -54.441406 99.890625 -45.0625 99.890625 -32.90625 C 99.890625 -21.007812 96.289062 -11.722656 89.09375 -5.046875 C 81.894531 1.617188 71.953125 4.953125 59.265625 4.953125 C 46.179688 4.953125 35.875 1.648438 28.34375 -4.953125 C 20.8125 -11.554688 17.046875 -20.875 17.046875 -32.90625 Z M 17.046875 -32.90625 "/></g></g></g></svg>