<svg xmlns="http://www.w3.org/2000/svg" xmlns:xlink="http://www.w3.org/1999/xlink" width="1080" zoomAndPan="magnify" viewBox="0 0 810 809.999993" height="1080" preserveAspectRatio="xMidYMid meet" version="1.0"><defs><g/></defs><rect x="-81" width="972" fill="#ffffff" y="-80.999999" height="971.999992" fill-opacity="1"/><rect x="-81" width="972" fill="#ffffff" y="-80.999999" height="971.999992" fill-opacity="1"/><rect x="-81" width="972" fill="#ffffff" y="-80.999999" height="971.999992" fill-opacity="1"/><path stroke-linecap="butt" transform="matrix(0.75, 0, 0, 0.75, 0.0000035, 0.00002)" fill="none" stroke-linejoin="miter" d="M -0.00000466667 -0.0000266667 L 1080.00005 -0.0000266667 L 1080.00005 1080.000028 L -0.00000466667 1080.000028 L -0.00000466667 -0.0000266667 " stroke="#ee6c4d" stroke-width="50" stroke-opacity="1" stroke-miterlimit="4"/><g fill="#ee6c4d" fill-opacity="1"><g transform="translate(107.709365, 520.499994)"><g><path d="M 154.546875 0 L 144 -40.140625 L 74.421875 -40.140625 L 63.578125 0 L 0 0 L 69.875 -215.046875 L 147.078125 -215.046875 L 217.828125 0 Z M 131.984375 -87.59375 L 122.75 -122.75 C 120.601562 -130.5625 117.988281 -140.671875 114.90625 -153.078125 C 111.832031 -165.484375 109.8125 -174.367188 108.84375 -179.734375 C 107.957031 -174.753906 106.21875 -166.550781 103.625 -155.125 C 101.039062 -143.695312 95.304688 -121.1875 86.421875 -87.59375 Z M 131.984375 -87.59375 "/></g></g><g transform="translate(325.53162, 520.499994)"><g><path d="M 116.453125 0 L 72.65625 -154.25 L 71.34375 -154.25 C 73.394531 -127.976562 74.421875 -107.566406 74.421875 -93.015625 L 74.421875 0 L 23.140625 0 L 23.140625 -214.15625 L 100.203125 -214.15625 L 144.875 -62.109375 L 146.046875 -62.109375 L 189.84375 -214.15625 L 267.046875 -214.15625 L 267.046875 0 L 213.875 0 L 213.875 -93.890625 C 213.875 -98.773438 213.945312 -104.195312 214.09375 -110.15625 C 214.238281 -116.113281 214.894531 -130.710938 216.0625 -153.953125 L 214.75 -153.953125 L 171.53125 0 Z M 116.453125 0 "/></g></g><g transform="translate(615.57067, 520.499994)"><g><path d="M 12.59375 -24.3125 C 12.59375 -33.300781 15.253906 -40.234375 20.578125 -45.109375 C 25.898438 -49.992188 33.640625 -52.4375 43.796875 -52.4375 C 53.460938 -52.4375 60.882812 -49.992188 66.0625 -45.109375 C 71.238281 -40.234375 73.828125 -33.300781 73.828125 -24.3125 C 73.828125 -15.53125 71.164062 -8.671875 65.84375 -3.734375 C 60.519531 1.191406 53.171875 3.65625 43.796875 3.65625 C 34.128906 3.65625 26.507812 1.21875 20.9375 -3.65625 C 15.375 -8.539062 12.59375 -15.425781 12.59375 -24.3125 Z M 12.59375 -24.3125 "/></g></g></g></svg>